<?xml version="1.0" encoding="utf-8"?>
<!-- Generator: Adobe Illustrator 25.1.0, SVG Export Plug-In . SVG Version: 6.00 Build 0)  -->
<svg version="1.1" id="Layer_1" xmlns="http://www.w3.org/2000/svg" xmlns:xlink="http://www.w3.org/1999/xlink" x="0px" y="0px"
	 viewBox="0 0 336.5 31.6" style="enable-background:new 0 0 336.5 31.6;" xml:space="preserve">
<style type="text/css">
	.st0{fill:#FFFFFF;stroke:#000000;stroke-width:0.5;stroke-miterlimit:10;}
</style>
<g id="Layer_2_1_">
	<g id="Layer_1-2">
		<path class="st0" d="M39.4,25.6H14.1l-4.2,5.9H0L21.8,0h10l21.7,31.5h-10L39.4,25.6z M26.7,6.7l-9,13.4h18L26.7,6.7z"/>
		<path class="st0" d="M89.5,0h9.1v31.5h-5.7l0,0L67.5,10.3v21.2h-9.1V0h7.4l23.8,19.5V0H89.5z"/>
		<path class="st0" d="M149.7,15.5c0.2,8-7.3,16-24.2,16h-19V0h19C142.1,0,149.5,7.7,149.7,15.5z M115.4,25.8h10
			c11,0,15.4-5.2,15.2-10.3c-0.2-4.9-4.6-9.8-15.2-9.8h-10C115.4,5.7,115.4,25.8,115.4,25.8z"/>
		<path class="st0" d="M190.1,25.6h-25.4l-4.1,5.9h-9.9L172.4,0h10l21.8,31.5h-10L190.1,25.6z M177.4,6.7l-9,13.4h18L177.4,6.7z"/>
		<path class="st0" d="M240.2,0h9.1v31.5h-5.7l0,0l-25.5-21.3v21.2H209V0h7.4l23.8,19.5V0z"/>
		<path class="st0" d="M270.2,5.4h-15.4V0h39.9v5.4h-15.4v26.1h-9.1V5.4z"/>
		<path class="st0" d="M309.2,13.4h26.2v5.2h-26.2v7.1h27.2v5.9h-36.3 M300.2,0h36.3v5.8h-27.2"/>
	</g>
</g>
</svg>
