<svg id="Layer_1" data-name="Layer 1" xmlns="http://www.w3.org/2000/svg" viewBox="0 0 336.5 31.6"><defs><style>.cls-1{fill:#444349;}</style></defs><g id="Layer_2" data-name="Layer 2"><g id="Layer_1-2" data-name="Layer 1-2"><path class="cls-1" d="M39.4,25.6H14.1L9.9,31.5H0L21.8,0h10L53.5,31.5h-10ZM26.7,6.7l-9,13.4h18Z" transform="translate(0 0)"/><path class="cls-1" d="M89.5,0h9.1V31.5H92.9L67.5,10.3V31.5H58.4V0h7.4L89.6,19.5V0Z" transform="translate(0 0)"/><path class="cls-1" d="M149.7,15.5c.2,8-7.3,16-24.2,16h-19V0h19C142.1,0,149.5,7.7,149.7,15.5ZM115.4,25.8h10c11,0,15.4-5.2,15.2-10.3-.2-4.9-4.6-9.8-15.2-9.8h-10Z" transform="translate(0 0)"/><path class="cls-1" d="M190.1,25.6H164.7l-4.1,5.9h-9.9L172.4,0h10l21.8,31.5h-10ZM177.4,6.7l-9,13.4h18Z" transform="translate(0 0)"/><path class="cls-1" d="M240.2,0h9.1V31.5h-5.7L218.1,10.2V31.4H209V0h7.4l23.8,19.5Z" transform="translate(0 0)"/><path class="cls-1" d="M270.2,5.4H254.8V0h39.9V5.4H279.3V31.5h-9.1Z" transform="translate(0 0)"/><path class="cls-1" d="M309.2,13.4h26.2v5.2H309.2v7.1h27.2v5.9H300.1M300.2,0h36.3V5.8H309.3" transform="translate(0 0)"/></g></g></svg>