<?xml version="1.0" encoding="utf-8"?>
<!-- Generator: Adobe Illustrator 25.1.0, SVG Export Plug-In . SVG Version: 6.00 Build 0)  -->
<svg version="1.1" id="Layer_1" xmlns:serif="http://www.serif.com/"
	 xmlns="http://www.w3.org/2000/svg" xmlns:xlink="http://www.w3.org/1999/xlink" x="0px" y="0px" viewBox="0 0 595.3 841.9"
	 style="enable-background:new 0 0 595.3 841.9;" xml:space="preserve">
<style type="text/css">
	.st0{fill:none;}
	.st1{fill:#FFFFFF;}
</style>
<rect x="65.1" y="188.4" class="st0" width="465.1" height="465.1"/>
<path class="st1" d="M187.2,662.8c224.6,0,347.5-186.1,347.5-347.5c0-5.3,0-10.5-0.4-15.8c23.9-17.3,44.5-38.7,60.9-63.2
	c-22.3,9.9-45.9,16.4-70.1,19.2c25.5-15.3,44.6-39.3,53.7-67.6c-24,14.2-50.2,24.3-77.6,29.6c-23.1-24.6-55.3-38.5-89.1-38.5
	c-67.1,0-122.2,55.2-122.2,122.2c0,9.3,1.1,18.6,3.2,27.6c-98.1-4.9-189.7-51.3-251.7-127.6c-32.2,55.5-15.6,127.4,37.8,163
	c-19.4-0.6-38.4-5.8-55.4-15.3v1.5c0,57.9,41.2,108.3,98,119.7c-18,4.9-36.8,5.6-55.1,2.1c16,49.6,62,83.8,114.1,84.8
	c-43.2,34-96.7,52.4-151.7,52.4c-9.7,0-19.4-0.6-29.1-1.8C55.8,643.8,120.8,662.8,187.2,662.8"/>
</svg>
